<?xml version="1.0" standalone="no"?>
<!DOCTYPE svg PUBLIC "-//W3C//DTD SVG 20010904//EN"
 "http://www.w3.org/TR/2001/REC-SVG-20010904/DTD/svg10.dtd">
<svg version="1.0" xmlns="http://www.w3.org/2000/svg"
 width="2000.000000pt" height="1500.000000pt" viewBox="0 0 2000.000000 1500.000000"
 preserveAspectRatio="xMidYMid meet">

<g transform="translate(0.000000,1500.000000) scale(0.100000,-0.100000)"
fill="#000000" stroke="none">
<path d="M10760 11901 c-88 -28 -187 -98 -215 -152 -34 -64 -12 -136 60 -204
59 -55 125 -77 254 -84 l106 -6 3 -62 3 -62 36 25 c41 28 103 33 103 9 0 -22
-29 -75 -40 -75 -6 0 -10 -5 -10 -10 0 -19 57 18 93 60 19 23 56 83 82 133 52
101 54 138 15 202 -20 32 -124 120 -199 169 -87 55 -215 80 -291 57z"/>
<path d="M10620 11435 c0 -8 7 -15 15 -15 8 0 15 7 15 15 0 8 -7 15 -15 15 -8
0 -15 -7 -15 -15z"/>
<path d="M10750 11420 c-12 -8 -12 -10 3 -16 21 -8 35 2 21 16 -5 5 -15 6 -24
0z"/>
<path d="M15609 11269 c-28 -10 -28 -11 -45 -168 -6 -59 -6 -63 12 -58 10 3
57 13 103 22 47 8 85 16 87 18 6 7 -105 192 -117 194 -8 1 -26 -3 -40 -8z"/>
<path d="M10740 11190 c-152 -14 -210 -46 -263 -147 -66 -128 -98 -243 -67
-243 4 0 81 16 171 35 90 19 168 35 174 35 5 0 23 -41 40 -90 29 -90 30 -91
80 -114 71 -34 121 -46 188 -46 51 0 62 4 88 29 16 16 29 39 29 50 0 19 6 21
60 21 72 0 170 -33 171 -58 1 -35 18 22 18 64 2 104 -65 234 -157 304 -25 19
-78 63 -118 98 -39 34 -74 62 -78 62 -4 0 -15 -20 -26 -44 -23 -55 -53 -76
-106 -76 -59 0 -83 24 -100 103 -1 4 -2 12 -3 17 0 6 -4 9 -8 9 -5 -1 -46 -5
-93 -9z"/>
<path d="M14086 11013 c-163 -50 -275 -188 -301 -374 -8 -53 11 -159 28 -159
10 0 86 23 197 60 64 22 385 125 513 165 54 18 87 33 87 42 0 50 -95 170 -175
222 -87 56 -245 77 -349 44z"/>
<path d="M10300 10759 c0 -5 5 -7 10 -4 6 3 10 8 10 11 0 2 -4 4 -10 4 -5 0
-10 -5 -10 -11z"/>
<path d="M10355 10670 c3 -5 8 -10 11 -10 2 0 4 5 4 10 0 6 -5 10 -11 10 -5 0
-7 -4 -4 -10z"/>
<path d="M10350 10630 c-12 -8 -11 -10 8 -10 12 0 22 5 22 10 0 13 -11 13 -30
0z"/>
<path d="M11396 10604 c-4 -9 -4 -19 -1 -22 2 -3 7 3 11 12 4 9 4 19 1 22 -2
3 -7 -3 -11 -12z"/>
<path d="M10518 10513 c7 -3 16 -2 19 1 4 3 -2 6 -13 5 -11 0 -14 -3 -6 -6z"/>
<path d="M10467 10456 c-5 -34 -3 -52 4 -57 14 -8 202 -28 289 -30 36 -1 152
2 258 6 162 7 195 6 203 -6 7 -11 9 -10 9 6 0 34 -13 40 -91 42 -79 3 -155 19
-223 47 -27 11 -43 13 -50 6 -6 -6 -65 -10 -142 -10 -106 0 -134 -3 -144 -15
-12 -14 -15 -14 -30 0 -13 12 -19 13 -22 4 -6 -18 -46 11 -50 36 -2 11 -7 -2
-11 -29z m83 -26 c0 -5 -4 -10 -10 -10 -5 0 -10 5 -10 10 0 6 5 10 10 10 6 0
10 -4 10 -10z"/>
<path d="M14412 9942 c-119 -41 -132 -48 -126 -66 8 -29 109 -350 149 -471 17
-55 47 -147 65 -205 17 -58 38 -123 46 -145 13 -38 120 -374 240 -755 31 -96
75 -233 98 -305 24 -71 58 -178 77 -237 l34 -107 153 -3 c83 -2 152 0 152 3 0
4 -17 60 -39 125 -21 66 -59 184 -84 264 -68 215 -175 553 -207 650 -56 174
-227 710 -353 1108 -33 105 -63 192 -66 191 -3 0 -66 -21 -139 -47z"/>
<path d="M10418 9717 c-34 -28 -67 -95 -74 -151 -8 -54 6 -64 48 -38 34 22
138 140 138 157 0 10 -63 55 -77 55 -5 0 -20 -10 -35 -23z"/>
<path d="M10779 9634 c-7 -8 -29 -24 -49 -34 -32 -16 -41 -30 -69 -100 -18
-45 -31 -92 -29 -103 4 -32 40 -33 77 -1 31 26 171 201 171 213 0 8 -65 41
-79 41 -5 0 -14 -7 -22 -16z"/>
<path d="M6135 8273 c-85 -12 -130 -28 -160 -54 -87 -77 -64 -203 59 -329 55
-56 82 -65 72 -25 -6 24 -4 25 36 25 54 0 159 28 263 69 44 17 86 31 93 31 6
0 13 -13 13 -30 2 -52 4 -55 29 -60 57 -11 90 -55 90 -118 0 -35 -6 -49 -30
-74 -16 -16 -30 -36 -30 -43 0 -13 55 -65 69 -65 5 0 11 51 15 113 4 61 11
159 16 217 5 58 10 132 11 164 l3 59 -55 19 c-156 54 -430 110 -494 101z"/>
<path d="M14070 7976 c-25 -7 -63 -22 -85 -33 -73 -38 -88 -62 -193 -293 -65
-144 -80 -337 -33 -414 l23 -37 74 3 c61 2 73 6 68 18 -41 94 -52 195 -35 307
l13 78 85 0 86 0 26 68 c14 37 29 67 33 67 5 0 8 -28 8 -63 0 -36 5 -68 12
-75 7 -7 32 -12 56 -12 l44 0 -7 -87 c-11 -150 -25 -268 -40 -324 -21 -76 -20
-77 21 -70 30 5 38 12 48 40 11 34 14 36 164 85 96 31 152 55 152 63 0 16 -40
151 -110 375 -29 90 -55 174 -59 188 -9 32 -92 95 -150 115 -53 18 -138 18
-201 1z m311 -463 c16 -43 4 -102 -26 -132 l-27 -26 6 40 c4 22 9 64 13 93 6
58 18 66 34 25z"/>
<path d="M6310 7766 c0 -10 9 -16 21 -16 24 0 21 23 -4 28 -10 2 -17 -3 -17
-12z"/>
<path d="M6170 7734 c0 -9 7 -14 17 -12 25 5 28 28 4 28 -12 0 -21 -6 -21 -16z"/>
<path d="M17235 7000 c0 -355 1 -500 2 -323 2 178 2 468 0 645 -1 178 -2 33
-2 -322z"/>
<path d="M17263 7580 c0 -36 2 -50 4 -32 2 17 2 47 0 65 -2 17 -4 3 -4 -33z"/>
<path d="M17470 6864 c0 -429 -3 -784 -7 -789 -5 -6 -6 -467 -3 -1025 l5
-1015 8 1798 c5 989 6 1801 3 1804 -3 4 -6 -345 -6 -773z"/>
<path d="M13934 7559 c-10 -17 13 -36 27 -22 12 12 4 33 -11 33 -5 0 -12 -5
-16 -11z"/>
<path d="M14077 7544 c-9 -10 2 -24 19 -24 8 0 14 7 14 15 0 15 -21 21 -33 9z"/>
<path d="M17263 6925 c0 -308 2 -570 5 -583 7 -22 5 801 -1 1038 -1 58 -3
-147 -4 -455z"/>
<path d="M14001 7044 c0 -11 3 -14 6 -6 3 7 2 16 -1 19 -3 4 -6 -2 -5 -13z"/>
<path d="M14320 7009 c0 -8 9 -20 20 -27 11 -7 20 -10 20 -7 0 3 -9 15 -20 27
-14 16 -20 18 -20 7z"/>
<path d="M14052 6870 c0 -19 2 -27 5 -17 2 9 2 25 0 35 -3 9 -5 1 -5 -18z"/>
<path d="M5318 6609 c-10 -6 -14 -74 -16 -276 -2 -147 -1 -265 3 -262 3 4 17
36 29 73 13 36 26 63 30 59 3 -3 6 1 6 10 0 18 47 115 67 139 9 10 12 26 9 40
-3 13 -3 17 0 9 4 -8 19 10 40 50 27 49 34 75 34 117 l0 53 -95 -2 c-52 -2
-100 -6 -107 -10z m149 -141 c-3 -8 -6 -5 -6 6 -1 11 2 17 5 13 3 -3 4 -12 1
-19z"/>
<path d="M14082 6520 c0 -19 2 -27 5 -17 2 9 2 25 0 35 -3 9 -5 1 -5 -18z"/>
<path d="M13068 6443 c7 -3 16 -2 19 1 4 3 -2 6 -13 5 -11 0 -14 -3 -6 -6z"/>
<path d="M14607 6269 c4 -13 8 -18 11 -10 2 7 -1 18 -6 23 -8 8 -9 4 -5 -13z"/>
<path d="M17225 5240 c0 -575 1 -810 2 -522 2 287 2 757 0 1045 -1 287 -2 52
-2 -523z"/>
<path d="M14582 6180 c0 -14 2 -19 5 -12 2 6 2 18 0 25 -3 6 -5 1 -5 -13z"/>
<path d="M12940 6161 c0 -5 -3 -16 -6 -25 -3 -9 -2 -16 4 -16 5 0 12 11 14 25
3 14 1 25 -3 25 -5 0 -9 -4 -9 -9z"/>
<path d="M12951 6054 c0 -11 3 -14 6 -6 3 7 2 16 -1 19 -3 4 -6 -2 -5 -13z"/>
<path d="M12931 5974 c0 -11 3 -14 6 -6 3 7 2 16 -1 19 -3 4 -6 -2 -5 -13z"/>
<path d="M14133 5900 c0 -36 2 -50 4 -32 2 17 2 47 0 65 -2 17 -4 3 -4 -33z"/>
<path d="M14632 5900 c0 -14 2 -19 5 -12 2 6 2 18 0 25 -3 6 -5 1 -5 -13z"/>
<path d="M12926 5870 c8 -43 14 -51 14 -19 0 13 -5 31 -10 39 -7 11 -8 5 -4
-20z"/>
<path d="M14582 5875 c0 -16 2 -22 5 -12 2 9 2 23 0 30 -3 6 -5 -1 -5 -18z"/>
<path d="M13222 5810 c0 -19 2 -27 5 -17 2 9 2 25 0 35 -3 9 -5 1 -5 -18z"/>
<path d="M14590 5736 c0 -8 4 -17 9 -20 5 -4 7 3 4 14 -6 23 -13 26 -13 6z"/>
<path d="M13211 5624 c0 -11 3 -14 6 -6 3 7 2 16 -1 19 -3 4 -6 -2 -5 -13z"/>
<path d="M14620 5565 c0 -8 4 -15 10 -15 5 0 7 7 4 15 -4 8 -8 15 -10 15 -2 0
-4 -7 -4 -15z"/>
<path d="M14830 5570 c0 -5 5 -10 11 -10 5 0 7 5 4 10 -3 6 -8 10 -11 10 -2 0
-4 -4 -4 -10z"/>
<path d="M6010 5333 c-10 -157 -10 -274 -1 -563 6 -201 14 -386 17 -412 l6
-48 -445 0 -444 0 -35 -72 c-19 -40 -38 -83 -42 -95 -8 -26 -32 -21 -59 11
-17 21 -17 21 -33 1 -16 -19 -16 -19 -10 14 3 19 4 32 1 29 -3 -3 -21 10 -40
28 -23 21 -41 31 -54 27 -13 -3 -21 2 -26 16 -12 38 -43 36 -85 -7 -22 -22
-40 -45 -40 -51 0 -5 -6 -8 -12 -6 -7 3 -19 1 -27 -4 -11 -7 -8 -17 18 -49 19
-24 27 -43 21 -47 -5 -3 -10 -15 -10 -27 0 -20 0 -20 18 2 l17 22 19 -21 c23
-26 14 -40 -10 -16 -16 16 -18 16 -30 -7 -7 -12 -13 -17 -14 -10 0 8 -22 12
-77 11 -57 -1 -70 -3 -48 -9 23 -6 25 -8 8 -9 -29 -1 -54 9 -47 20 3 5 -4 9
-15 9 -10 0 -27 3 -36 7 -14 5 -16 2 -11 -18 6 -20 5 -21 -4 -7 -8 14 -6 24
12 49 21 28 22 31 6 43 -10 7 -42 18 -72 25 -31 7 -59 17 -62 23 -10 17 36 47
84 54 23 3 42 9 42 13 0 4 -13 20 -29 35 -49 47 -46 60 24 116 109 87 153 164
162 284 6 84 -8 140 -40 158 -13 6 -58 10 -107 9 -193 -4 -324 -78 -386 -218
-45 -102 -62 -309 -31 -372 17 -35 16 -36 -60 -75 l-53 -26 0 -66 c0 -77 29
-353 40 -372 4 -9 15 -1 33 27 32 49 49 51 79 11 12 -17 24 -26 28 -20 3 5 12
-12 19 -38 16 -60 32 -95 49 -105 9 -6 -3 -25 -46 -72 -33 -35 -71 -78 -85
-97 l-26 -34 20 -79 c20 -81 58 -135 94 -135 8 0 15 -3 15 -7 0 -8 -87 -119
-137 -176 l-25 -29 24 -26 c41 -47 111 -125 178 -202 36 -41 79 -90 95 -108
l30 -33 32 43 c17 24 57 77 88 118 l57 75 -7 -81 -7 -81 34 -6 c18 -4 128 -7
243 -8 l210 -2 -4 184 c-1 101 -6 254 -10 339 -4 85 -4 166 0 180 5 17 8 19 8
7 1 -13 7 -17 24 -15 17 2 23 10 25 40 2 20 -4 53 -12 73 -13 29 -15 64 -10
170 5 137 0 175 -39 265 -17 38 -13 82 11 118 13 20 13 22 -2 22 -27 0 -18 18
12 22 15 2 254 2 530 0 l504 -2 -4 -58 c-2 -31 -28 -147 -57 -257 -64 -244
-112 -431 -197 -765 -57 -224 -83 -324 -100 -381 -6 -20 32 -34 221 -84 77
-20 147 -38 155 -41 17 -4 31 39 232 736 55 190 117 406 139 480 22 74 47 188
56 253 l18 118 84 -3 84 -3 22 -100 c22 -98 27 -144 65 -630 10 -132 29 -370
41 -528 l23 -288 65 6 c136 13 315 36 320 41 8 8 -31 1255 -45 1427 l-7 77
1594 -2 1594 -3 70 -22 c69 -22 165 -62 175 -73 3 -4 23 -17 45 -30 62 -37
193 -168 240 -240 51 -79 99 -201 115 -295 19 -110 8 -292 -23 -390 -65 -197
-198 -363 -372 -460 -102 -58 -135 -71 -228 -91 -58 -12 -303 -14 -1617 -14
-852 0 -1555 -3 -1564 -6 -21 -8 -23 -84 -3 -84 8 0 62 -34 121 -75 l108 -76
2271 -2 c1773 -2 2271 -5 2270 -14 -5 -22 259 -90 304 -78 34 8 39 32 13 61
-22 22 -22 24 -4 24 10 0 63 3 116 5 94 5 97 5 100 -17 3 -22 7 -23 124 -26
137 -3 199 10 199 43 0 13 -15 28 -43 43 l-42 24 81 39 c241 117 427 317 526
566 54 137 76 263 70 413 -9 210 -60 377 -170 548 -82 128 -224 257 -377 344
-81 47 -82 46 -119 -31 l-34 -69 25 -64 c14 -34 33 -94 43 -133 9 -38 18 -76
21 -83 2 -7 0 -11 -5 -7 -5 3 -13 -14 -17 -37 l-7 -43 -14 65 c-17 82 -37 106
-29 35 3 -27 11 -160 17 -295 7 -135 13 -261 15 -280 5 -70 6 -302 1 -306 -3
-3 -45 -12 -94 -21 -125 -22 -283 -13 -383 22 -126 43 -257 76 -310 77 -28 1
-53 5 -55 9 -3 4 9 61 26 128 17 66 29 127 25 136 -3 8 -16 15 -29 15 -39 0
-65 39 -89 134 l-22 88 -44 -49 c-25 -26 -62 -72 -84 -101 -92 -124 -137 -6
-73 193 32 98 37 110 98 210 l49 80 -17 170 c-22 220 -21 223 35 255 l45 25
-2342 3 -2341 2 -6 48 c-3 26 -19 202 -36 392 -16 190 -34 388 -39 440 -6 52
-13 139 -17 193 -6 89 -17 118 -30 83 -8 -20 -91 -62 -154 -76 -69 -16 -231
-16 -330 0 -137 22 -381 89 -491 134 -14 6 -17 -16 -29 -191z m594 -980 c6
-43 6 -43 -25 -43 -28 0 -30 2 -25 28 3 15 8 52 12 82 l7 55 12 -40 c7 -22 15
-59 19 -82z m-1804 -93 c0 -6 -11 -21 -25 -34 l-25 -24 25 -6 c14 -4 25 -11
25 -16 0 -7 -6 -7 -17 -1 -10 5 -27 12 -37 16 -18 5 -16 9 14 40 37 38 40 40
40 25z m27 -45 c0 -8 -9 -15 -19 -15 -18 0 -24 11 -11 23 12 12 30 7 30 -8z
m88 -6 c-10 -15 -25 -10 -19 6 4 8 10 12 15 9 5 -3 7 -10 4 -15z m-45 -13 c0
-11 -19 -15 -25 -6 -3 5 1 10 9 10 9 0 16 -2 16 -4z m-22 -45 c3 -8 -1 -12 -9
-9 -7 2 -15 10 -17 17 -3 8 1 12 9 9 7 -2 15 -10 17 -17z m42 -41 c0 -5 -2
-10 -4 -10 -3 0 -8 5 -11 10 -3 6 -1 10 4 10 6 0 11 -4 11 -10z m150 -10 c0
-5 -11 -10 -25 -10 -14 0 -25 5 -25 10 0 6 11 10 25 10 14 0 25 -4 25 -10z
m-103 -34 c13 -15 18 -28 12 -37 -6 -10 -10 -9 -15 6 -4 11 -13 24 -21 28 -14
9 -18 27 -5 27 5 0 18 -11 29 -24z m-270 -22 c-3 -3 -12 -4 -19 -1 -8 3 -5 6
6 6 11 1 17 -2 13 -5z m-124 -33 c9 -16 16 -40 16 -53 -1 -20 -2 -20 -6 -3 -3
11 -16 35 -30 53 -16 21 -20 32 -11 32 8 0 21 -13 31 -29z m277 -1 c0 -5 -4
-10 -10 -10 -5 0 -10 5 -10 10 0 6 5 10 10 10 6 0 10 -4 10 -10z m147 -12 c-3
-8 -6 -5 -6 6 -1 11 2 17 5 13 3 -3 4 -12 1 -19z m-592 2 c4 -6 -7 -10 -24
-10 -17 0 -31 -5 -31 -11 0 -5 -5 -7 -10 -4 -17 10 9 35 36 35 12 0 26 -4 29
-10z m-85 -20 c0 -9 -31 -30 -44 -30 -3 0 2 9 11 20 19 21 33 26 33 10z m573
-10 c9 -11 17 -23 17 -27 0 -3 11 -20 24 -37 30 -40 44 -80 25 -74 -8 3 -13
13 -11 22 2 10 -5 25 -15 34 -10 9 -24 29 -31 45 -6 15 -16 27 -21 27 -5 0
-11 7 -15 15 -8 21 7 19 27 -5z m-490 -7 c-7 -2 -21 -2 -30 0 -10 3 -4 5 12 5
17 0 24 -2 18 -5z m52 -3 c-3 -5 -11 -10 -16 -10 -6 0 -7 5 -4 10 3 6 11 10
16 10 6 0 7 -4 4 -10z m-214 -59 c-16 -17 -34 -31 -40 -31 -6 0 -11 -4 -11 -9
0 -16 -49 -65 -57 -57 -4 4 24 36 62 71 70 66 98 82 46 26z m248 13 c3 -16 1
-17 -13 -5 -19 16 -21 34 -3 29 6 -3 14 -13 16 -24z m120 -26 c1 -5 -3 -8 -9
-8 -5 0 -10 12 -9 28 0 24 1 25 9 7 5 -11 9 -23 9 -27z m-166 12 c3 -11 1 -20
-4 -20 -5 0 -9 9 -9 20 0 11 2 20 4 20 2 0 6 -9 9 -20z m75 -66 c-3 -27 -4
-26 -9 8 -3 22 -1 34 4 29 5 -5 7 -21 5 -37z m119 14 c-3 -7 -5 -2 -5 12 0 14
2 19 5 13 2 -7 2 -19 0 -25z m30 10 c-3 -8 -6 -5 -6 6 -1 11 2 17 5 13 3 -3 4
-12 1 -19z m-45 -101 c-2 -21 -8 -37 -13 -37 -5 0 -9 -15 -9 -34 0 -19 -4 -38
-10 -41 -10 -6 -5 39 11 89 5 16 10 52 10 80 1 48 2 49 8 15 4 -20 5 -52 3
-72z m-442 38 c-7 -9 -15 -13 -19 -10 -3 3 1 10 9 15 21 14 24 12 10 -5z m336
-34 c-5 -33 -51 -131 -61 -131 -5 0 20 72 33 96 6 11 13 31 17 47 8 42 18 32
11 -12z m151 7 c-3 -7 -5 -2 -5 12 0 14 2 19 5 13 2 -7 2 -19 0 -25z m343 20
c0 -7 3 -24 6 -38 4 -18 3 -21 -4 -10 -17 27 -24 60 -13 60 6 0 11 -6 11 -12z
m-363 -60 c-3 -8 -6 -5 -6 6 -1 11 2 17 5 13 3 -3 4 -12 1 -19z m-398 -45 c-1
-34 -2 -35 -9 -13 -11 36 -11 50 0 50 6 0 10 -17 9 -37z m790 -20 c0 -25 -1
-26 -10 -8 -8 17 -9 16 -5 -8 2 -15 -1 -30 -5 -33 -5 -3 -9 -16 -9 -30 0 -13
-4 -24 -9 -24 -4 0 -4 24 2 53 5 28 10 64 10 79 0 22 2 24 13 13 8 -7 14 -26
13 -42z m-747 25 c-6 -6 -15 -8 -19 -4 -4 4 -1 11 7 16 19 12 27 3 12 -12z
m705 -20 c-3 -7 -5 -2 -5 12 0 14 2 19 5 13 2 -7 2 -19 0 -25z m-607 11 c0 -9
-27 -19 -50 -19 -10 0 -20 -7 -24 -15 -6 -16 -26 -21 -26 -7 0 21 40 49 69 48
17 -1 31 -4 31 -7z m21 -38 c-19 -15 -25 -30 -29 -75 -2 -30 -11 -61 -18 -67
-11 -9 -14 -8 -14 5 0 9 4 16 9 16 5 0 9 15 9 34 0 60 22 105 52 105 10 1 7
-6 -9 -18z m26 -43 c-3 -8 -6 -5 -6 6 -1 11 2 17 5 13 3 -3 4 -12 1 -19z m153
19 c0 -1 -9 -20 -20 -42 -23 -45 -25 -71 -7 -78 7 -2 8 -8 3 -13 -5 -5 -11 -4
-13 4 -6 15 -43 16 -43 0 0 -6 -2 -9 -5 -6 -4 3 5 21 18 41 13 19 30 49 37 66
7 17 16 31 21 31 5 0 9 -1 9 -3z m447 -49 c-3 -7 -5 -2 -5 12 0 14 2 19 5 13
2 -7 2 -19 0 -25z m-626 -11 c-10 -9 -11 -8 -5 6 3 10 9 15 12 12 3 -3 0 -11
-7 -18z m176 -49 c-3 -7 -5 -2 -5 12 0 14 2 19 5 13 2 -7 2 -19 0 -25z m-97
-67 c0 -5 -13 -21 -30 -34 -16 -14 -30 -28 -30 -31 0 -9 -51 -56 -60 -56 -5 0
15 26 45 57 30 32 55 61 55 65 0 5 5 8 10 8 6 0 10 -4 10 -9z m373 -48 c-7 -2
-19 -2 -25 0 -7 3 -2 5 12 5 14 0 19 -2 13 -5z m136 -20 c0 -16 -3 -22 -6 -15
-2 6 -23 15 -46 19 l-42 8 45 6 c25 3 46 7 48 7 1 1 2 -10 1 -25z m71 18 c0
-6 -4 -13 -10 -16 -5 -3 -10 1 -10 9 0 9 5 16 10 16 6 0 10 -4 10 -9z m-210
-21 c0 -5 -7 -10 -16 -10 -8 0 -12 5 -9 10 3 6 10 10 16 10 5 0 9 -4 9 -10z
m105 -19 c13 -5 -7 -11 -63 -17 -84 -10 -98 -2 -27 15 50 11 65 12 90 2z
m6662 -64 l133 -52 0 -125 c0 -69 -3 -135 -6 -147 -4 -16 -25 -29 -76 -49
l-69 -26 -120 58 c-82 41 -121 65 -124 79 -3 11 -6 83 -8 160 l-2 139 40 13
c54 16 77 12 232 -50z m-6932 33 c-3 -5 -30 -9 -58 -8 l-52 1 50 7 c28 4 54 8
58 8 5 1 5 -2 2 -8z m7503 -521 c59 -19 102 -38 102 -45 0 -13 -64 -218 -123
-391 -23 -70 -35 -93 -51 -97 -30 -8 -89 -7 -102 2 -22 13 -54 144 -60 242 -6
82 -4 108 14 167 24 77 73 153 100 153 9 0 63 -14 120 -31z m469 -81 c-4 -46
-10 -159 -13 -251 -7 -163 -8 -169 -31 -184 -13 -9 -42 -17 -66 -20 -39 -4
-44 -2 -64 29 -39 59 -81 152 -97 215 -21 79 -21 202 -1 229 8 10 15 29 15 42
0 22 2 22 131 22 l132 0 -6 -82z"/>
<path d="M11635 3191 l-50 -18 2 -122 c1 -67 4 -125 7 -128 3 -3 20 1 38 10
18 8 40 17 48 19 23 5 28 32 29 151 1 120 4 116 -74 88z"/>
<path d="M14540 5494 c-88 -42 -303 -115 -342 -116 -27 -1 -38 -13 -18 -20 5
-1 14 -64 20 -138 5 -74 13 -154 16 -177 5 -41 4 -43 -20 -43 -21 0 -26 5 -27
28 -2 23 -2 24 -6 5 -3 -13 -12 -23 -21 -23 -22 0 -391 38 -454 46 -44 6 -48
5 -48 -14 0 -77 132 -614 206 -840 14 -42 13 -43 -31 -138 -25 -52 -45 -97
-45 -99 0 -3 -51 -113 -115 -250 -39 -83 -119 -262 -175 -394 l-53 -123 24
-19 c13 -10 28 -19 33 -19 4 0 34 -15 65 -34 73 -44 428 -226 441 -226 5 0 19
18 30 39 11 22 32 59 48 83 15 24 37 63 47 88 24 57 24 57 36 40 7 -11 8 -8 3
12 -4 20 10 58 65 165 39 76 75 143 81 150 5 7 10 15 10 19 0 10 64 138 72
144 3 3 10 18 13 33 4 15 11 27 15 27 11 0 17 -53 35 -305 8 -121 20 -267 26
-325 6 -58 11 -113 11 -123 -1 -16 5 -18 56 -12 180 19 337 37 408 45 45 5 91
6 103 3 12 -3 21 -1 21 6 0 6 7 11 16 11 13 0 15 7 10 38 -3 20 -9 62 -12 92
-22 225 -35 360 -49 525 -36 431 -39 455 -110 715 -80 296 -96 357 -128 480
-14 52 -35 131 -47 175 -13 44 -26 100 -31 125 -9 49 -12 59 -58 225 -17 61
-31 120 -31 133 0 12 -3 22 -7 22 -5 -1 -42 -17 -83 -36z"/>
<path d="M14678 5417 c-3 -19 -2 -25 4 -19 6 6 8 18 6 28 -3 14 -5 12 -10 -9z"/>
<path d="M14701 5389 c-13 -39 -14 -46 -2 -33 9 10 24 64 17 64 -2 0 -9 -14
-15 -31z"/>
<path d="M14172 5260 c0 -14 2 -19 5 -12 2 6 2 18 0 25 -3 6 -5 1 -5 -13z"/>
<path d="M13818 5063 c7 -3 16 -2 19 1 4 3 -2 6 -13 5 -11 0 -14 -3 -6 -6z"/>
<path d="M14008 5063 c6 -2 18 -2 25 0 6 3 1 5 -13 5 -14 0 -19 -2 -12 -5z"/>
<path d="M14128 5063 c6 -2 18 -2 25 0 6 3 1 5 -13 5 -14 0 -19 -2 -12 -5z"/>
<path d="M13933 5053 c9 -2 25 -2 35 0 9 3 1 5 -18 5 -19 0 -27 -2 -17 -5z"/>
<path d="M13220 4920 c-9 -6 -10 -10 -3 -10 6 0 15 5 18 10 8 12 4 12 -15 0z"/>
<path d="M12100 4886 c-92 -33 -138 -58 -194 -107 -58 -52 -76 -90 -76 -164 0
-60 23 -188 45 -245 7 -19 23 -62 35 -95 12 -33 29 -76 38 -95 8 -19 25 -56
36 -83 l21 -47 61 49 c33 27 86 65 117 85 61 39 66 50 42 96 -13 26 -22 30
-75 36 -73 8 -110 33 -110 75 0 23 5 30 28 35 15 3 33 8 41 10 8 3 23 -5 33
-16 30 -32 55 -26 68 18 7 20 25 51 40 67 49 53 72 110 79 196 l6 80 46 -48
c56 -57 113 -141 130 -188 15 -40 38 -47 34 -11 -8 74 -73 236 -117 291 -12
15 -42 41 -67 56 -40 26 -54 29 -120 28 -52 0 -97 -8 -141 -23z"/>
<path d="M5301 4724 c0 -11 3 -14 6 -6 3 7 2 16 -1 19 -3 4 -6 -2 -5 -13z"/>
<path d="M5295 4690 c-8 -13 -1 -24 14 -19 6 3 7 10 2 18 -6 10 -10 10 -16 1z"/>
<path d="M12430 4595 c0 -8 7 -15 15 -15 8 0 15 7 15 15 0 8 -7 15 -15 15 -8
0 -15 -7 -15 -15z"/>
<path d="M4677 4553 c-12 -11 -8 -23 8 -23 8 0 15 7 15 15 0 16 -12 20 -23 8z"/>
<path d="M12320 4546 c0 -9 7 -16 16 -16 17 0 14 22 -4 28 -7 2 -12 -3 -12
-12z"/>
<path d="M4590 4445 c0 -8 7 -15 15 -15 8 0 15 7 15 15 0 8 -7 15 -15 15 -8 0
-15 -7 -15 -15z"/>
<path d="M12435 4290 c-8 -13 15 -13 35 0 12 8 11 10 -7 10 -12 0 -25 -4 -28
-10z"/>
<path d="M17210 4140 c0 -11 5 -20 10 -20 6 0 10 9 10 20 0 11 -4 20 -10 20
-5 0 -10 -9 -10 -20z"/>
<path d="M17191 4024 c0 -11 3 -14 6 -6 3 7 2 16 -1 19 -3 4 -6 -2 -5 -13z"/>
<path d="M17452 3990 c0 -14 4 -38 8 -55 l8 -30 0 30 c0 17 -4 41 -8 55 l-8
25 0 -25z"/>
<path d="M12171 3894 c0 -11 3 -14 6 -6 3 7 2 16 -1 19 -3 4 -6 -2 -5 -13z"/>
<path d="M17441 3894 c0 -11 3 -14 6 -6 3 7 2 16 -1 19 -3 4 -6 -2 -5 -13z"/>
<path d="M17152 3884 c-7 -8 -10 -19 -6 -26 5 -7 10 -3 16 12 10 28 7 33 -10
14z"/>
<path d="M17445 3799 c-4 -6 -5 -12 -2 -15 2 -3 7 2 10 11 7 17 1 20 -8 4z"/>
<path d="M17111 3764 c0 -11 3 -14 6 -6 3 7 2 16 -1 19 -3 4 -6 -2 -5 -13z"/>
<path d="M17400 3715 c0 -5 5 -17 10 -25 5 -8 10 -10 10 -5 0 6 -5 17 -10 25
-5 8 -10 11 -10 5z"/>
<path d="M17060 3674 c0 -8 5 -12 10 -9 6 3 10 10 10 16 0 5 -4 9 -10 9 -5 0
-10 -7 -10 -16z"/>
<path d="M17390 3644 c0 -8 5 -12 10 -9 6 4 8 11 5 16 -9 14 -15 11 -15 -7z"/>
<path d="M16986 3581 c-4 -7 -5 -15 -2 -18 9 -9 19 4 14 18 -4 11 -6 11 -12 0z"/>
<path d="M17285 3549 c-4 -6 -4 -13 -1 -16 3 -4 6 -1 6 5 0 6 8 13 18 15 15 4
15 5 0 6 -9 0 -20 -4 -23 -10z"/>
<path d="M17315 3517 c-4 -10 -5 -21 -1 -24 10 -10 18 4 13 24 -4 17 -4 17
-12 0z"/>
<path d="M16920 3510 c0 -5 5 -10 10 -10 6 0 10 5 10 10 0 6 -4 10 -10 10 -5
0 -10 -4 -10 -10z"/>
<path d="M17286 3443 c-6 -14 -5 -15 5 -6 7 7 10 15 7 18 -3 3 -9 -2 -12 -12z"/>
<path d="M17222 3370 c-7 -11 -10 -20 -6 -20 7 0 34 27 34 34 0 13 -16 5 -28
-14z"/>
<path d="M17152 3306 c7 -8 15 -12 17 -11 5 6 -10 25 -20 25 -5 0 -4 -6 3 -14z"/>
<path d="M16960 3229 c0 -5 5 -7 10 -4 6 3 10 8 10 11 0 2 -4 4 -10 4 -5 0
-10 -5 -10 -11z"/>
<path d="M17035 3229 c-4 -6 -5 -12 -2 -15 2 -3 7 2 10 11 7 17 1 20 -8 4z"/>
<path d="M16365 3200 c-3 -5 3 -10 14 -10 12 0 21 5 21 10 0 6 -6 10 -14 10
-8 0 -18 -4 -21 -10z"/>
<path d="M17050 3200 c-8 -5 -12 -12 -9 -15 4 -3 12 1 19 10 14 17 11 19 -10
5z"/>
<path d="M14195 3170 c3 -5 11 -10 16 -10 6 0 7 5 4 10 -3 6 -11 10 -16 10 -6
0 -7 -4 -4 -10z"/>
<path d="M16240 3170 c0 -5 7 -10 16 -10 8 0 12 5 9 10 -3 6 -10 10 -16 10 -5
0 -9 -4 -9 -10z"/>
<path d="M16976 3158 c5 -7 2 -9 -9 -5 -11 4 -14 2 -10 -9 3 -7 -1 -14 -8 -14
-7 0 -10 -3 -6 -6 3 -4 17 3 31 14 23 18 25 32 4 32 -5 0 -6 -5 -2 -12z"/>
<path d="M15101 3144 c0 -11 3 -14 6 -6 3 7 2 16 -1 19 -3 4 -6 -2 -5 -13z"/>
<path d="M14442 3105 c0 -16 2 -22 5 -12 2 9 2 23 0 30 -3 6 -5 -1 -5 -18z"/>
<path d="M15112 3100 c0 -14 2 -19 5 -12 2 6 2 18 0 25 -3 6 -5 1 -5 -13z"/>
<path d="M14120 3076 c0 -8 5 -18 10 -21 6 -3 10 1 10 9 0 8 -4 18 -10 21 -5
3 -10 -1 -10 -9z"/>
<path d="M16678 3053 c7 -3 16 -2 19 1 4 3 -2 6 -13 5 -11 0 -14 -3 -6 -6z"/>
<path d="M16705 3030 c-27 -10 -43 -18 -35 -18 8 0 38 8 65 18 28 10 43 18 35
18 -8 0 -37 -8 -65 -18z"/>
<path d="M15112 3020 c0 -14 2 -19 5 -12 2 6 2 18 0 25 -3 6 -5 1 -5 -13z"/>
<path d="M14090 3019 c0 -5 5 -7 10 -4 6 3 10 8 10 11 0 2 -4 4 -10 4 -5 0
-10 -5 -10 -11z"/>
<path d="M14135 3000 c3 -5 18 -10 32 -10 32 0 28 5 -10 14 -19 4 -26 3 -22
-4z"/>
<path d="M16538 2993 c7 -3 16 -2 19 1 4 3 -2 6 -13 5 -11 0 -14 -3 -6 -6z"/>
<path d="M14283 2983 c20 -2 54 -2 75 0 20 2 3 4 -38 4 -41 0 -58 -2 -37 -4z"/>
<path d="M15333 2983 c125 -2 329 -2 455 0 125 1 22 2 -228 2 -250 0 -353 -1
-227 -2z"/>
<path d="M16028 2983 c6 -2 18 -2 25 0 6 3 1 5 -13 5 -14 0 -19 -2 -12 -5z"/>
<path d="M16098 2983 c12 -2 32 -2 45 0 12 2 2 4 -23 4 -25 0 -35 -2 -22 -4z"/>
<path d="M16178 2983 c7 -3 16 -2 19 1 4 3 -2 6 -13 5 -11 0 -14 -3 -6 -6z"/>
<path d="M16293 2983 c37 -2 96 -2 130 0 34 2 4 3 -68 3 -71 0 -99 -1 -62 -3z"/>
<path d="M3652 2529 c-18 -5 -50 -27 -72 -49 -67 -67 -65 -156 6 -227 39 -39
98 -56 176 -49 59 4 61 4 103 -35 56 -51 83 -52 87 -1 l3 37 367 0 c203 0 368
2 368 5 0 3 -13 37 -30 75 -16 39 -34 89 -40 112 -10 41 -11 42 -64 48 -30 4
-159 5 -288 3 l-233 -4 -66 -47 c-37 -26 -75 -47 -86 -47 -21 0 -59 24 -85 53
-16 18 -16 22 3 68 10 27 19 53 19 57 0 11 -131 11 -168 1z"/>
<path d="M4901 2441 c-11 -7 -16 -39 -19 -123 l-4 -113 333 2 c184 1 341 2
349 2 8 1 20 13 27 29 22 50 56 192 49 200 -11 11 -718 14 -735 3z"/>
<path d="M5665 2440 c-3 -5 -1 -10 4 -10 6 0 11 5 11 10 0 6 -2 10 -4 10 -3 0
-8 -4 -11 -10z"/>
<path d="M5978 2443 c-9 -2 -19 -16 -23 -30 -5 -21 1 -33 28 -62 18 -20 56
-60 83 -89 l50 -53 377 -2 377 -2 5 40 c3 22 6 76 8 120 l2 80 -445 1 c-245 0
-452 -1 -462 -3z"/>
<path d="M4830 2145 c-14 -8 -37 -15 -52 -15 -23 0 -27 -5 -33 -41 -4 -22 -4
-43 0 -47 4 -4 66 -7 138 -6 149 1 190 11 185 46 -6 46 -185 93 -238 63z"/>
</g>
</svg>
